<svg width="20" height="20" viewBox="0 0 20 20" fill="none" xmlns="http://www.w3.org/2000/svg">
<path d="M3.12501 9.99996C3.12482 8.79305 3.44235 7.60736 4.04568 6.56208C4.64901 5.5168 5.51688 4.64876 6.56205 4.04523C7.60721 3.44169 8.79284 3.12393 9.99974 3.12388C11.2066 3.12383 12.3923 3.4415 13.4375 4.04496C13.581 4.12653 13.7509 4.14804 13.9102 4.1048C14.0695 4.06156 14.2052 3.95707 14.2877 3.81414C14.3702 3.67121 14.3928 3.50144 14.3507 3.34188C14.3085 3.18232 14.2049 3.04593 14.0625 2.96246C12.5136 2.06818 10.7129 1.70998 8.93962 1.94341C7.16637 2.17683 5.51969 2.98883 4.25495 4.25349C2.99022 5.51814 2.17811 7.16477 1.94457 8.938C1.71104 10.7112 2.06912 12.512 2.96329 14.061C3.85747 15.6099 5.23776 16.8206 6.89011 17.5052C8.54245 18.1898 10.3745 18.31 12.1022 17.8473C13.8298 17.3845 15.3565 16.3647 16.4455 14.9458C17.5344 13.527 18.1248 11.7885 18.125 9.99996C18.125 9.8342 18.0592 9.67523 17.942 9.55802C17.8247 9.44081 17.6658 9.37496 17.5 9.37496C17.3343 9.37496 17.1753 9.44081 17.0581 9.55802C16.9409 9.67523 16.875 9.8342 16.875 9.99996C16.875 11.8233 16.1507 13.572 14.8614 14.8613C13.5721 16.1506 11.8234 16.875 10 16.875C8.17665 16.875 6.42796 16.1506 5.13865 14.8613C3.84934 13.572 3.12501 11.8233 3.12501 9.99996Z" fill="#FAFAFB"/>
<path d="M19.1925 4.19244C19.2506 4.13433 19.2967 4.06534 19.3282 3.98941C19.3596 3.91349 19.3758 3.83211 19.3758 3.74993C19.3758 3.66776 19.3596 3.58638 19.3282 3.51046C19.2967 3.43453 19.2506 3.36554 19.1925 3.30743C19.1344 3.24932 19.0654 3.20323 18.9895 3.17178C18.9136 3.14033 18.8322 3.12415 18.75 3.12415C18.6678 3.12415 18.5864 3.14033 18.5105 3.17178C18.4346 3.20323 18.3656 3.24932 18.3075 3.30743L10 11.6162L6.6925 8.30743C6.63439 8.24932 6.5654 8.20323 6.48948 8.17178C6.41355 8.14033 6.33218 8.12415 6.25 8.12415C6.16782 8.12415 6.08644 8.14033 6.01052 8.17178C5.93459 8.20323 5.86561 8.24932 5.8075 8.30743C5.74939 8.36554 5.70329 8.43453 5.67184 8.51046C5.64039 8.58638 5.62421 8.66775 5.62421 8.74993C5.62421 8.83211 5.64039 8.91349 5.67184 8.98941C5.70329 9.06534 5.74939 9.13433 5.8075 9.19243L9.5575 12.9424C9.61555 13.0006 9.68452 13.0468 9.76045 13.0783C9.83639 13.1098 9.91779 13.1261 10 13.1261C10.0822 13.1261 10.1636 13.1098 10.2395 13.0783C10.3155 13.0468 10.3844 13.0006 10.4425 12.9424L19.1925 4.19244Z" fill="#FAFAFB"/>
</svg>