<svg width="20" height="20" viewBox="0 0 20 20" fill="none" xmlns="http://www.w3.org/2000/svg">
<g clip-path="url(#clip0_9_1436)">
<path d="M5.675 0.1825C5.79213 0.0656638 5.95081 3.51487e-05 6.11625 0L13.8838 0C14.0492 3.51487e-05 14.2079 0.0656638 14.325 0.1825L19.8175 5.675C19.9343 5.79213 20 5.95081 20 6.11625V13.8838C20 14.0492 19.9343 14.2079 19.8175 14.325L14.325 19.8175C14.2079 19.9343 14.0492 20 13.8838 20H6.11625C5.95081 20 5.79213 19.9343 5.675 19.8175L0.1825 14.325C0.0656638 14.2079 3.51487e-05 14.0492 0 13.8838L0 6.11625C3.51487e-05 5.95081 0.0656638 5.79213 0.1825 5.675L5.675 0.1825ZM6.375 1.25L1.25 6.375V13.625L6.375 18.75H13.625L18.75 13.625V6.375L13.625 1.25H6.375Z" fill="#FAFAFB"/>
<path d="M5.80752 5.80752C5.86558 5.74931 5.93454 5.70314 6.01048 5.67163C6.08641 5.64012 6.16781 5.6239 6.25002 5.6239C6.33223 5.6239 6.41363 5.64012 6.48956 5.67163C6.56549 5.70314 6.63446 5.74931 6.69252 5.80752L10 9.11627L13.3075 5.80752C13.3656 5.74941 13.4346 5.70331 13.5105 5.67186C13.5865 5.64042 13.6678 5.62423 13.75 5.62423C13.8322 5.62423 13.9136 5.64042 13.9895 5.67186C14.0654 5.70331 14.1344 5.74941 14.1925 5.80752C14.2506 5.86563 14.2967 5.93461 14.3282 6.01054C14.3596 6.08646 14.3758 6.16784 14.3758 6.25002C14.3758 6.3322 14.3596 6.41357 14.3282 6.4895C14.2967 6.56542 14.2506 6.63441 14.1925 6.69252L10.8838 10L14.1925 13.3075C14.2506 13.3656 14.2967 13.4346 14.3282 13.5105C14.3596 13.5865 14.3758 13.6678 14.3758 13.75C14.3758 13.8322 14.3596 13.9136 14.3282 13.9895C14.2967 14.0654 14.2506 14.1344 14.1925 14.1925C14.1344 14.2506 14.0654 14.2967 13.9895 14.3282C13.9136 14.3596 13.8322 14.3758 13.75 14.3758C13.6678 14.3758 13.5865 14.3596 13.5105 14.3282C13.4346 14.2967 13.3656 14.2506 13.3075 14.1925L10 10.8838L6.69252 14.1925C6.63441 14.2506 6.56542 14.2967 6.4895 14.3282C6.41357 14.3596 6.3322 14.3758 6.25002 14.3758C6.16784 14.3758 6.08646 14.3596 6.01054 14.3282C5.93461 14.2967 5.86563 14.2506 5.80752 14.1925C5.74941 14.1344 5.70331 14.0654 5.67186 13.9895C5.64042 13.9136 5.62423 13.8322 5.62423 13.75C5.62423 13.6678 5.64042 13.5865 5.67186 13.5105C5.70331 13.4346 5.74941 13.3656 5.80752 13.3075L9.11627 10L5.80752 6.69252C5.74931 6.63446 5.70314 6.56549 5.67163 6.48956C5.64012 6.41363 5.6239 6.33223 5.6239 6.25002C5.6239 6.16781 5.64012 6.08641 5.67163 6.01048C5.70314 5.93454 5.74931 5.86558 5.80752 5.80752Z" fill="#FAFAFB"/>
</g>
<defs>
<clipPath id="clip0_9_1436">
<rect width="20" height="20" fill="white"/>
</clipPath>
</defs>
</svg>